# xmcd
#
# Track frame offsets:
#	182
#	21002
#	40192
#	51597
#	70812
#	83190
#	93750
#	105695
#	120715
#	135205
#	149387
#	160360
#	173190
#	183832
#	197170
#	210577
#	224762
#	233137
#	244910
#
# Disc length: 3431
#
# Revision: 1
# Processed by: cddbd v1.5.1PL0 Copyright (c) Steve Scherf et al.
# Submitted via: CDex 1.51
# Normalized: r0:DSETVAR1,TDELIM( - )
#
DISCID=110d6513
DTITLE=Various Artist - Onvergetelijke Country Hits CD5
DYEAR=1988
DGENRE=Country
TTITLE0=Willie Nelson - September Song
TTITLE1=Dolly Parton - Boulder To Birmingham
TTITLE2=Tom T. Hall - Ravishing Ruby
TTITLE3=Don Williams - Good Ole Boys Like Me
TTITLE4=Charley Pride - Rollin'With The Flow
TTITLE5=Dolly Parton - Bubbling Over
TTITLE6=Jerry Lee Lewis - What Made Milwaukee Famous
TTITLE7=Waylon Jennings/Willie Nelson - Luckenbach, Texas
TTITLE8=Dolly Parton - Harper Valley P.T.A.
TTITLE9=Roger Miller - Jody And The Kid
TTITLE10=Skeeter Davis - Take Me Home, Country Roads
TTITLE11=Dottie West/Jimmy Dean - Jackson
TTITLE12=Glen Campbell - Bowling Green
TTITLE13=Tennessee E. Ford - The Night They Droe Old Dixie Down
TTITLE14=Tany Tucker - The Jamestown Ferry
TTITLE15=Jim Reeves - Streets Of Laredo
TTITLE16=Eddy Arnold - Georgia On My Mind
TTITLE17=Ray Price - Heartaches By The Number
TTITLE18=Don Williams - You're My Best Friend
EXTD=YEAR: 1988
EXTT0=
EXTT1=
EXTT2=
EXTT3=
EXTT4=
EXTT5=
EXTT6=
EXTT7=
EXTT8=
EXTT9=
EXTT10=
EXTT11=
EXTT12=
EXTT13=
EXTT14=
EXTT15=
EXTT16=
EXTT17=
EXTT18=
PLAYORDER=
